<?xml version="1.0" encoding="utf-8"?>
<!-- Generator: Adobe Illustrator 22.0.0, SVG Export Plug-In . SVG Version: 6.00 Build 0)  -->
<svg version="1.1" id="Camada_1" xmlns="http://www.w3.org/2000/svg" xmlns:xlink="http://www.w3.org/1999/xlink" x="0px" y="0px"
	 viewBox="0 0 118 53.8" style="enable-background:new 0 0 118 53.8;" xml:space="preserve">
<style type="text/css">
	.st0{fill:#7159C1;}
</style>
<title>Group 2</title>
<desc>Created with Sketch.</desc>
<g>
	<g>
		<g>
			<g>
				<path class="st0" d="M43.8,9.1c-3.9,2.5-14.5,4.6-18.5,1.3c-3.9-3.2,0.4-6.9,3.5-4c1.1,1.1,4.4-1.8,0.2-4.8
					c-4.4-3.1-8.9,2.2-8,7c1,5.7,13,10.1,27.7,7c10.6-2.2,12.4-7,10.6-10.3C57.4,1.9,54.1,2.6,43.8,9.1z"/>
			</g>
		</g>
		<g>
			<g>
				<path class="st0" d="M74.2,9.1c3.9,2.5,14.5,4.6,18.5,1.3c3.9-3.2-0.4-6.9-3.5-4c-1.1,1.1-4.4-1.8-0.2-4.8c4.4-3.1,8.9,2.2,8,7
					c-1,5.7-13,10.1-27.7,7c-10.6-2.2-12.4-7-10.6-10.3C60.6,1.9,63.9,2.6,74.2,9.1z"/>
			</g>
		</g>
	</g>
	<g>
		<g>
			<g>
				<g>
					<g>
						<g>
							<g>
								<path class="st0" d="M11,19.5c32,0,64.1,0,96.1,0c0.4,0,0.4-0.6,0-0.6c-50.2,0-82.2,0-96.1,0C10.6,18.9,10.6,19.5,11,19.5
									L11,19.5z"/>
							</g>
						</g>
					</g>
				</g>
			</g>
		</g>
		<g>
			<g>
				<g>
					<g>
						<g>
							<g>
								<path class="st0" d="M11,36.9c32,0,64.1,0,96.1,0c0.4,0,0.4-0.6,0-0.6c-50.2,0-82.2,0-96.1,0C10.6,36.3,10.6,36.9,11,36.9
									L11,36.9z"/>
							</g>
						</g>
					</g>
				</g>
			</g>
		</g>
	</g>
	<g>
		<g>
			<path class="st0" d="M16.7,30.8c0,1.4-0.8,2-2.5,2h-3.2v-0.4l0.6-0.4c0-2.7,0-5.4,0-8.1l-0.5-0.4v-0.4h3.1c1.3,0,2.2,0.3,2.2,1.8
				v1.4c0,0.5-0.3,1.1-0.8,1.3c0.6,0.2,1.1,0.7,1.1,1.6V30.8z M14.2,31.9c0.7,0,1.1-0.4,1.1-1.1v-1.6c0-0.8-0.3-1.2-1.2-1.2h-1
				c0,1.1,0,2.4,0,3.4c0,0.3-0.1,0.4-0.3,0.5v0.1H14.2z M15,26.2v-1.4c0-0.5-0.3-1-0.9-1h-1c0,1.2,0,2.2,0,3.4c0.4,0,0.6,0,1,0
				C14.7,27.3,15,26.9,15,26.2z"/>
		</g>
		<g>
			<path class="st0" d="M21.3,32.1l0.5,0.2v0.4H20v-0.4l0.5-0.3c0.7-2.9,1.5-6.2,2.2-9.1h1.4l2.2,9l0.5,0.3v0.4h-2.5v-0.4l0.5-0.3
				l-0.5-2h-2.5L21.3,32.1z M22,29.3h2.2l-1.1-4.7h0L22,29.3z"/>
		</g>
		<g>
			<path class="st0" d="M33.3,29.7c-0.3-0.7-0.5-0.9-1.3-0.9c0,0.9,0,2.3,0,3.2l0.6,0.4v0.4c-0.8,0-1.8,0-2.6,0v-0.4l0.6-0.4
				c0-2.7,0-5.4,0-8.1L30,23.4V23h2.8c1.5,0,2.7,0.6,2.7,2.3v1.3c0,1.2-0.7,1.9-1.6,2c0.4,0.2,0.6,0.5,0.7,0.9l0.7,1.8
				c0.1,0.4,0.4,0.9,0.8,0.8v0.5c-0.3,0.1-0.7,0.2-1,0.2c-0.9,0-1-0.6-1.2-1.4L33.3,29.7z M31.9,23.9c0,1.5,0,2.5,0,4.1h0.9
				c0.9,0,1.3-0.5,1.3-1.4v-1.3c0-0.9-0.3-1.4-1.3-1.4H31.9z"/>
		</g>
		<g>
			<path class="st0" d="M45.2,30.8c0,1.4-0.8,2-2.5,2h-3.2v-0.4l0.6-0.4c0-2.7,0-5.4,0-8.1l-0.5-0.4v-0.4h3.1c1.3,0,2.2,0.3,2.2,1.8
				v1.4c0,0.5-0.3,1.1-0.8,1.3c0.6,0.2,1.1,0.7,1.1,1.6V30.8z M42.7,31.9c0.7,0,1.1-0.4,1.1-1.1v-1.6c0-0.8-0.3-1.2-1.2-1.2h-1
				c0,1.1,0,2.4,0,3.4c0,0.3-0.1,0.4-0.3,0.5v0.1H42.7z M43.4,26.2v-1.4c0-0.5-0.3-1-0.9-1h-1c0,1.2,0,2.2,0,3.4c0.4,0,0.6,0,1,0
				C43.2,27.3,43.4,26.9,43.4,26.2z"/>
		</g>
		<g>
			<path class="st0" d="M48.9,32.7v-0.4l0.6-0.4c0-2.7,0-5.5,0-8.2L49,23.4V23c1.7,0,3.2,0,4.9,0v2.2h-0.7l-0.4-1.4H51
				c0,1.2,0,2.4,0,3.6h1.3l0.4-0.8h0.4c0,0.7,0,1.7,0,2.3h-0.4l-0.4-0.7H51c0,1,0,2,0,3.1c0,0.2-0.1,0.3-0.3,0.4v0.1
				c0.8,0,1.6,0,2.4,0l0.5-1.3h0.6v2.2C52.4,32.7,50.7,32.7,48.9,32.7z"/>
		</g>
		<g>
			<path class="st0" d="M61.1,29.7c-0.3-0.7-0.5-0.9-1.3-0.9c0,0.9,0,2.3,0,3.2l0.6,0.4v0.4c-0.8,0-1.8,0-2.6,0v-0.4l0.6-0.4
				c0-2.7,0-5.4,0-8.1l-0.5-0.4V23h2.8c1.5,0,2.7,0.6,2.7,2.3v1.3c0,1.2-0.7,1.9-1.6,2c0.4,0.2,0.6,0.5,0.7,0.9l0.7,1.8
				c0.1,0.4,0.4,0.9,0.8,0.8v0.5c-0.3,0.1-0.7,0.2-1,0.2c-0.9,0-1-0.6-1.2-1.4L61.1,29.7z M59.8,23.9c0,1.5,0,2.5,0,4.1h0.9
				c0.9,0,1.3-0.5,1.3-1.4v-1.3c0-0.9-0.3-1.4-1.3-1.4H59.8z"/>
		</g>
		<g>
			<path class="st0" d="M75.2,32c0.7,0,1.1-0.5,1.1-1.2v-1.2c0-1.8-3.5-1.1-3.5-3.5v-1.2c0-1.5,1.1-2,2.2-2c0.6,0,1.1,0.1,1.6,0.6
				h0.1l0.1-0.5h0.9c0,0.9,0,1.7,0,2.6h-1.4v-0.7c0-0.7-0.4-1.1-1-1.1c-0.7,0-1,0.4-1,1.1v1.2c0,1.7,3.5,0.9,3.5,3.5v1.2
				c0,1.5-1.3,2.1-2.6,2.1c-1.3,0-2.5-0.7-2.5-2.1V30h1.6v0.8C74.3,31.6,74.6,32,75.2,32z"/>
		</g>
		<g>
			<path class="st0" d="M81.6,23.4V23h2.5v0.4l-0.5,0.4v3.6h2.2v-3.6l-0.5-0.4V23h2.5v0.4l-0.5,0.4V32l0.6,0.3v0.4h-2.6v-0.4
				l0.6-0.3v-3.8h-2.2V32l0.6,0.3v0.4h-2.6v-0.4l0.6-0.3v-8.2L81.6,23.4z"/>
		</g>
		<g>
			<path class="st0" d="M97.3,30.3c0,1.6-1.1,2.6-2.8,2.6c-1.7,0-2.8-1-2.8-2.6v-4.8c0-1.6,1.1-2.6,2.8-2.6c1.7,0,2.8,1,2.8,2.6
				V30.3z M93.2,30.3c0,1.1,0.4,1.7,1.3,1.7c0.9,0,1.4-0.8,1.4-1.7v-4.8c0-0.9-0.4-1.7-1.4-1.7c-0.9,0-1.3,0.6-1.3,1.7V30.3z"/>
		</g>
		<g>
			<path class="st0" d="M106.9,27c0,1.7-1.2,2.2-2.8,2.2h-0.9c0,0.9,0,1.8,0,2.7l0.6,0.4v0.4c-0.8,0-1.8,0-2.6,0v-0.4l0.6-0.4
				c0-2.7,0-5.4,0-8.1l-0.5-0.4V23h2.8c1.5,0,2.7,0.6,2.7,2.3V27z M103.3,23.9c0,1.5,0,3,0,4.5h0.9c0.9,0,1.3-0.5,1.3-1.4v-1.7
				c0-0.9-0.3-1.4-1.3-1.4H103.3z"/>
		</g>
	</g>
	<path class="st0" d="M24.4,45h69.1l2.9-8.6h-75L24.4,45z M86.5,41.9c0.2,0.1,0.4,0.3,0.7,0.4c0.3,0.1,0.6,0.2,0.9,0.2
		c0.3,0,0.6-0.1,0.8-0.2c0.1-0.1,0.2-0.1,0.3-0.2c0.1-0.1,0.1-0.2,0.1-0.3c0-0.2-0.1-0.3-0.3-0.4c-0.1,0-0.4-0.1-0.7-0.1l-0.6-0.1
		c-0.4,0-0.6-0.1-0.8-0.1c-0.2,0-0.3-0.1-0.5-0.2c-0.2-0.1-0.4-0.3-0.5-0.5c-0.1-0.2-0.2-0.4-0.2-0.7c0-0.4,0.1-0.8,0.4-1
		c0.4-0.4,0.9-0.5,1.7-0.5c0.3,0,0.6,0,0.9,0.1c0.3,0.1,0.6,0.2,1,0.4c0.1,0.1,0.2,0.1,0.3,0.1c0.1,0,0.1,0,0.2-0.1l0.1,0.1
		l-0.6,1.2l-0.1-0.1c0,0,0,0,0-0.1c0-0.1-0.1-0.2-0.2-0.3c-0.4-0.3-0.9-0.5-1.5-0.5c-0.3,0-0.5,0-0.7,0.1c-0.1,0-0.3,0.1-0.3,0.2
		c-0.1,0.1-0.1,0.2-0.1,0.3c0,0.2,0.1,0.3,0.3,0.4c0.1,0,0.4,0.1,0.7,0.1l0.6,0.1c0.3,0,0.6,0.1,0.8,0.1c0.2,0.1,0.4,0.2,0.6,0.3
		c0.2,0.1,0.3,0.3,0.4,0.5c0.1,0.2,0.1,0.4,0.1,0.6c0,0.4-0.1,0.7-0.3,0.9c-0.2,0.2-0.5,0.4-0.9,0.5c-0.3,0.1-0.7,0.1-1,0.1
		c-0.7,0-1.3-0.2-1.9-0.5c-0.1-0.1-0.2-0.1-0.2-0.1c0,0-0.1,0-0.1,0.1l-0.1-0.1l0.5-1.2l0.1,0.1c0,0,0,0,0,0
		C86.3,41.7,86.4,41.8,86.5,41.9z M80.2,37.9h0.1c0,0.1,0.1,0.1,0.1,0.2c0,0,0.1,0,0.2,0h4.2c0.1,0,0.1,0,0.2,0c0,0,0.1-0.1,0.1-0.2
		h0.1v1.3H85c0-0.1-0.1-0.1-0.1-0.2c0,0-0.1,0-0.2,0h-1.5v3.8c0,0.1,0,0.1,0.1,0.2c0,0,0.1,0.1,0.2,0.1v0.1h-1.5V43
		c0.1,0,0.1-0.1,0.2-0.1c0,0,0.1-0.1,0.1-0.2V39h-1.5c-0.1,0-0.1,0-0.2,0c0,0-0.1,0.1-0.1,0.2h-0.1V37.9z M74.3,38.2h1.5v0.1
		c-0.1,0-0.1,0.1-0.2,0.1c0,0-0.1,0.1-0.1,0.2V41c0,0.3,0,0.5,0,0.6c0,0.1,0.1,0.3,0.2,0.3c0.2,0.2,0.6,0.4,1.2,0.4
		c0.6,0,1-0.1,1.2-0.4c0.1-0.1,0.1-0.2,0.2-0.3c0-0.1,0-0.3,0-0.6v-2.5c0-0.1,0-0.1-0.1-0.2c0,0-0.1-0.1-0.2-0.1v-0.1h1.5v0.1
		c-0.1,0-0.1,0.1-0.2,0.1c0,0-0.1,0.1-0.1,0.2v2.8c0,0.5-0.1,0.9-0.3,1.2c-0.3,0.5-1.1,0.7-2.2,0.7c-0.8,0-1.4-0.1-1.8-0.4
		c-0.2-0.1-0.4-0.3-0.5-0.6c-0.1-0.3-0.1-0.6-0.1-0.9v-2.8c0-0.1,0-0.1-0.1-0.2c0,0-0.1-0.1-0.2-0.1V38.2z M68.4,39.1
		c0.5-0.7,1.3-1,2.4-1c0.4,0,0.7,0,1,0.1c0.3,0.1,0.6,0.2,1.1,0.5c0.2,0.1,0.3,0.2,0.4,0.2c0,0,0.1,0,0.2-0.1l0.1,0.1l-0.7,1
		l-0.1-0.1c0,0,0-0.1,0-0.1c0-0.1,0-0.1-0.1-0.2c-0.1-0.1-0.2-0.1-0.3-0.2c-0.4-0.2-0.9-0.4-1.4-0.4c-0.6,0-1,0.1-1.4,0.4
		c-0.4,0.3-0.6,0.8-0.6,1.3c0,0.5,0.2,1,0.6,1.3c0.3,0.3,0.8,0.4,1.4,0.4c0.5,0,0.9-0.1,1.4-0.4c0.2-0.1,0.3-0.2,0.3-0.2
		c0.1-0.1,0.1-0.1,0.1-0.2c0,0,0-0.1,0-0.1l0.1-0.1l0.7,1l-0.1,0.1c-0.1-0.1-0.1-0.1-0.2-0.1c0,0-0.2,0.1-0.4,0.2
		c-0.4,0.2-0.8,0.4-1.1,0.5c-0.3,0.1-0.6,0.1-1,0.1c-0.8,0-1.4-0.2-1.9-0.6c-0.3-0.2-0.5-0.5-0.7-0.8c-0.2-0.4-0.3-0.8-0.3-1.2
		C67.9,40.1,68,39.5,68.4,39.1z M60.2,43c0.1,0,0.1-0.1,0.2-0.1c0,0,0.1-0.1,0.1-0.2v-4.2c0-0.1,0-0.1-0.1-0.2c0,0-0.1-0.1-0.2-0.1
		v-0.1h4.4c0.1,0,0.1,0,0.2-0.1c0,0,0.1-0.1,0.1-0.2H65v1.3h-0.1c0-0.1-0.1-0.1-0.1-0.2c0,0-0.1-0.1-0.2-0.1h-3.1v1.2h2
		c0.1,0,0.1,0,0.2-0.1c0,0,0.1-0.1,0.1-0.2h0.1v1.3h-0.1c0-0.1-0.1-0.1-0.1-0.2c0,0-0.1-0.1-0.2-0.1h-2v1.4h3.2c0.1,0,0.1,0,0.2-0.1
		c0,0,0.1-0.1,0.1-0.2H65v1.3h-0.1c0-0.1-0.1-0.1-0.1-0.2c0,0-0.1-0.1-0.2-0.1h-4.5V43z M54.3,38.8c0.5-0.4,1.3-0.7,2.1-0.7
		c0.3,0,0.6,0,0.8,0.1c0.3,0.1,0.5,0.1,0.9,0.3c0.2,0.1,0.3,0.1,0.4,0.1c0.1,0,0.1,0,0.2-0.1l0.1,0.1l-0.6,1.2l-0.1-0.1
		c0-0.1,0-0.1,0-0.2c0,0-0.1-0.1-0.1-0.1c-0.1-0.1-0.4-0.2-0.6-0.3c-0.3-0.1-0.6-0.1-0.8-0.1c-0.5,0-0.9,0.1-1.3,0.4
		c-0.4,0.3-0.6,0.8-0.6,1.3c0,0.5,0.2,0.9,0.6,1.3c0.3,0.3,0.8,0.4,1.4,0.4c0.3,0,0.5,0,0.8-0.1c0.3-0.1,0.5-0.1,0.7-0.3v-0.7h-1.2
		c-0.1,0-0.1,0-0.2,0.1c0,0-0.1,0.1-0.1,0.2h-0.1v-1.2h0.1c0,0.1,0.1,0.2,0.1,0.2c0,0,0.1,0,0.2,0h2.4v0.1c-0.1,0-0.1,0.1-0.2,0.1
		c0,0-0.1,0.1-0.1,0.2v1c0,0.1,0,0.1,0,0.2c0,0,0.1,0.1,0.2,0.1v0.1c-0.9,0.5-1.9,0.8-2.7,0.8c-0.8,0-1.5-0.2-2-0.6
		c-0.6-0.5-1-1.1-1-2C53.5,39.9,53.8,39.2,54.3,38.8z M49.5,38.3v-0.1h1.8v0.1c-0.1,0-0.2,0.1-0.2,0.2c0,0.1,0,0.1,0.1,0.2l1.9,3.8
		c0.1,0.2,0.2,0.3,0.2,0.3c0.1,0.1,0.1,0.1,0.2,0.1v0.1h-1.8V43c0.2,0,0.2-0.1,0.2-0.2c0-0.1,0-0.1-0.1-0.2l-0.3-0.7h-2.3l-0.3,0.7
		c0,0.1-0.1,0.2-0.1,0.2c0,0.1,0.1,0.2,0.2,0.2v0.1h-1.6V43c0.1,0,0.2-0.1,0.2-0.1c0.1,0,0.1-0.1,0.2-0.3l1.8-3.8
		c0.1-0.1,0.1-0.2,0.1-0.3C49.7,38.4,49.6,38.3,49.5,38.3z M42.8,37.9h0.1c0,0.1,0.1,0.1,0.1,0.2c0,0,0.1,0,0.2,0h4.2
		c0.1,0,0.1,0,0.2,0c0,0,0.1-0.1,0.1-0.2h0.1v1.3h-0.1c0-0.1-0.1-0.1-0.1-0.2c0,0-0.1,0-0.2,0h-1.5v3.8c0,0.1,0,0.1,0.1,0.2
		c0,0,0.1,0.1,0.2,0.1v0.1h-1.5V43c0.1,0,0.1-0.1,0.2-0.1c0,0,0.1-0.1,0.1-0.2V39h-1.5c-0.1,0-0.1,0-0.2,0c0,0-0.1,0.1-0.1,0.2h-0.1
		V37.9z M36.5,43c0.1,0,0.1-0.1,0.2-0.1c0,0,0.1-0.1,0.1-0.2v-4.2c0-0.1,0-0.1-0.1-0.2c0,0-0.1-0.1-0.2-0.1v-0.1h1.7v0.1
		c-0.1,0-0.2,0.1-0.2,0.2c0,0.1,0,0.1,0.1,0.2l2.7,2.8v-2.9c0-0.1,0-0.1-0.1-0.2c0,0-0.1-0.1-0.2-0.1v-0.1h1.5v0.1
		c-0.1,0-0.1,0.1-0.2,0.1c0,0-0.1,0.1-0.1,0.2v4.2c0,0.1,0,0.1,0.1,0.2c0,0,0.1,0.1,0.2,0.1v0.1h-1.6V43c0.1,0,0.2-0.1,0.2-0.2
		c0,0-0.1-0.1-0.2-0.3l-2.8-2.9v3c0,0.1,0,0.1,0.1,0.2c0,0,0.1,0.1,0.2,0.1v0.1h-1.5V43z M33.9,43c0.1,0,0.1-0.1,0.2-0.1
		c0,0,0.1-0.1,0.1-0.2v-4.2c0-0.1,0-0.1-0.1-0.2c0,0-0.1-0.1-0.2-0.1v-0.1h1.5v0.1c-0.1,0-0.1,0.1-0.2,0.1c0,0-0.1,0.1-0.1,0.2v4.2
		c0,0.1,0,0.1,0.1,0.2c0,0,0.1,0.1,0.2,0.1v0.1h-1.5V43z M27.6,38.2h1.8v0.1c-0.2,0-0.2,0.1-0.2,0.2c0,0.1,0,0.2,0.1,0.3l1.3,2.9
		l1.3-2.9c0.1-0.1,0.1-0.2,0.1-0.3c0-0.1-0.1-0.2-0.2-0.2v-0.1h1.7v0.1c-0.1,0-0.2,0-0.2,0.1c0,0-0.1,0.2-0.2,0.4l-1.7,3.7
		c-0.1,0.2-0.1,0.3-0.1,0.3c0,0.1,0.1,0.2,0.2,0.2v0.1h-1.7V43c0.2,0,0.2-0.1,0.2-0.2c0,0,0-0.1-0.1-0.3L28,38.8
		c-0.1-0.2-0.2-0.4-0.2-0.4c0,0-0.1-0.1-0.2-0.1V38.2z"/>
	<polygon class="st0" points="51.1,41.2 50.3,39.4 49.5,41.2 	"/>
	<g>
		<g>
			<g>
				<path class="st0" d="M44.6,51.5c-0.1-0.3-0.1-0.5-0.2-0.8c-0.6-0.1-0.9-0.2-1.5-0.3c-0.2,0.3-0.3,0.4-0.5,0.6
					c-0.3-0.1-0.5-0.1-0.8-0.2c0.9-1.2,1.4-1.8,2.3-3c0.3,0.1,0.4,0.1,0.7,0.2c0.3,1.5,0.5,2.2,0.8,3.7
					C45.1,51.6,44.9,51.5,44.6,51.5z M44,48.9c-0.3,0.4-0.4,0.5-0.6,0.9c0.3,0.1,0.5,0.1,0.9,0.2C44.1,49.5,44.1,49.3,44,48.9z"/>
			</g>
			<g>
				<path class="st0" d="M48.9,48.7c0.3,0,0.5,0.1,0.8,0.1c-0.2,1.4-0.3,2-0.4,3.4c-0.3,0-0.5-0.1-0.8-0.1c-0.6-0.9-0.8-1.4-1.4-2.4
					c-0.1,0.8-0.2,1.3-0.4,2.1c-0.3-0.1-0.5-0.1-0.8-0.1c0.2-1.3,0.4-2,0.6-3.4c0.3,0.1,0.4,0.1,0.7,0.1c0.5,1,0.8,1.5,1.4,2.4
					C48.8,50,48.8,49.6,48.9,48.7z"/>
			</g>
			<g>
				<path class="st0" d="M53.2,49.7c0.3,0.3,0.4,0.8,0.4,1.3c0,0.5-0.2,0.9-0.6,1.2c-0.4,0.3-0.9,0.4-1.6,0.3
					c-0.5-0.1-0.7-0.1-1.2-0.1c0.2-1.4,0.2-2,0.4-3.4c0.5,0.1,0.7,0.1,1.2,0.1C52.5,49.2,52.9,49.3,53.2,49.7z M52.5,51.6
					c0.2-0.2,0.3-0.4,0.4-0.7c0-0.3,0-0.6-0.2-0.8c-0.2-0.2-0.5-0.3-0.9-0.4c-0.2,0-0.3,0-0.4,0c-0.1,0.8-0.1,1.2-0.2,2.1
					c0.2,0,0.3,0,0.5,0.1C52,51.9,52.3,51.8,52.5,51.6z"/>
			</g>
			<g>
				<path class="st0" d="M56.7,50.1c-0.1,0.1-0.1,0.1-0.1,0.2c0,0.1,0,0.2,0.1,0.2c0.1,0.1,0.3,0.1,0.6,0.2c0.3,0.1,0.6,0.2,0.8,0.4
					c0.2,0.2,0.3,0.4,0.3,0.7c0,0.3-0.1,0.6-0.4,0.7c-0.2,0.2-0.6,0.3-1,0.3c-0.6,0-1.1-0.2-1.5-0.7c0.2-0.2,0.3-0.3,0.5-0.5
					c0.4,0.3,0.7,0.5,1.1,0.5c0.1,0,0.3,0,0.3-0.1c0.1-0.1,0.1-0.1,0.1-0.2c0-0.1,0-0.2-0.1-0.2c-0.1-0.1-0.3-0.1-0.5-0.2
					c-0.4-0.1-0.7-0.2-0.9-0.4c-0.2-0.2-0.3-0.4-0.3-0.7c0-0.3,0.1-0.6,0.4-0.7c0.2-0.2,0.5-0.2,0.9-0.2c0.2,0,0.5,0.1,0.7,0.1
					c0.2,0.1,0.4,0.2,0.6,0.3c-0.2,0.2-0.2,0.3-0.4,0.6C57.7,50.2,57.3,50,57,50C56.9,50,56.8,50,56.7,50.1z"/>
			</g>
			<g>
				<path class="st0" d="M61.3,49.4c0.3,0,0.5,0,0.8,0c0.1,1.4,0.1,2.1,0.1,3.4c-0.3,0-0.5,0-0.8,0c0-0.5,0-0.8,0-1.3
					c-0.6,0-0.8,0-1.4,0c0,0.5,0,0.8,0,1.3c-0.3,0-0.5,0-0.8,0c0-1.4,0-2.1,0-3.4c0.3,0,0.5,0,0.8,0c0,0.6,0,0.9,0,1.4
					c0.6,0,0.8,0,1.4,0C61.4,50.3,61.3,50,61.3,49.4z"/>
			</g>
			<g>
				<path class="st0" d="M65.8,52.6c-0.2-0.3-0.2-0.4-0.4-0.7c-0.6,0.1-0.9,0.1-1.5,0.1c-0.1,0.3-0.2,0.5-0.3,0.8
					c-0.3,0-0.5,0-0.9,0c0.6-1.4,0.8-2.1,1.3-3.5c0.3,0,0.4,0,0.7-0.1c0.7,1.3,1.1,2,1.8,3.3C66.3,52.5,66.1,52.5,65.8,52.6z
					 M64.5,50.3c-0.1,0.4-0.2,0.6-0.4,1c0.4,0,0.5,0,0.9-0.1C64.8,50.8,64.7,50.7,64.5,50.3z"/>
			</g>
			<g>
				<path class="st0" d="M68.1,51.1c0.3-0.9,0.4-1.4,0.6-2.3c0.3,0,0.5-0.1,0.8-0.1c-0.4,1.4-0.5,2.2-0.9,3.6
					c-0.3,0-0.4,0.1-0.7,0.1c-0.7-1.3-1.1-1.9-1.8-3.3c0.3,0,0.5-0.1,0.8-0.1C67.4,49.8,67.7,50.3,68.1,51.1z"/>
			</g>
			<g>
				<path class="st0" d="M72.5,48.2c0.1,0.3,0.1,0.4,0.1,0.7C72,49,71.6,49,71,49.2c0,0.3,0.1,0.4,0.1,0.7c0.6-0.1,0.9-0.2,1.6-0.3
					c0,0.3,0.1,0.4,0.1,0.6c-0.6,0.1-0.9,0.2-1.6,0.3c0,0.3,0.1,0.4,0.1,0.7c0.7-0.1,1.1-0.2,1.8-0.3c0.1,0.3,0.1,0.4,0.1,0.7
					c-1.1,0.2-1.6,0.3-2.6,0.5c-0.2-1.4-0.3-2-0.5-3.4C71.1,48.5,71.6,48.4,72.5,48.2z"/>
			</g>
			<g>
				<path class="st0" d="M74.3,48.5c-0.1,0.1-0.1,0.2-0.1,0.3c0,0.1,0.1,0.2,0.2,0.2c0.1,0,0.3,0.1,0.7,0.1c0.3,0,0.6,0.1,0.8,0.2
					c0.2,0.1,0.4,0.3,0.4,0.6c0.1,0.3,0,0.6-0.2,0.8c-0.2,0.2-0.5,0.4-0.9,0.5c-0.6,0.1-1.1,0-1.6-0.3c0.1-0.3,0.2-0.4,0.4-0.6
					c0.4,0.2,0.8,0.3,1.2,0.3c0.1,0,0.3-0.1,0.3-0.2c0.1-0.1,0.1-0.2,0.1-0.3c0-0.1-0.1-0.2-0.2-0.2c-0.1,0-0.3-0.1-0.6-0.1
					c-0.4,0-0.7-0.1-1-0.2c-0.2-0.1-0.4-0.3-0.4-0.6c-0.1-0.3,0-0.6,0.2-0.8c0.2-0.2,0.5-0.4,0.8-0.4c0.2,0,0.5-0.1,0.7,0
					c0.2,0,0.5,0.1,0.7,0.2c-0.1,0.3-0.2,0.4-0.3,0.6c-0.3-0.2-0.7-0.2-1-0.1C74.5,48.4,74.4,48.5,74.3,48.5z"/>
			</g>
		</g>
	</g>
</g>
</svg>
